PathFileType	4	(X/Y/Z)	D:\TRACE\v60_Jaco2_6-2-23\JustArmDRS_Motion1_2-v60.trc
DataRate	CameraRate	NumFrames	NumMarkers	Units	OrigDataRate	OrigDataStartFrame	OrigNumFrames
100.00	100.00	      17	9	mm	100.00	5107	      6808
Frame#	Time	front left toe			Front right toe			aft left toe			aft right toe			Arm			FL body			FR body			AL Body			AR Body			
		X1	Y1	Z1	X2	Y2	Z2	X3	Y3	Z3	X4	Y4	Z4	X5	Y5	Z5	X6	Y6	Z6	X7	Y7	Z7	X8	Y8	Z8	X9	Y9	Z9	

5107	51.060	-212.88277	13.39759	-172.03009	194.73827	8.01704	-216.50922	-146.31300	33.22060	433.07559	256.51828	33.54934	421.26041	58.22338	1106.98645	-628.84503	-90.65226	573.70697	-323.76251	68.66454	572.22021	-341.36655	12.80820	602.95563	615.23334	168.63776	595.86591	599.74670	
5108	51.070	-213.59898	13.29109	-171.93134	193.77596	8.15679	-216.44107	-147.23059	33.17173	433.20343	255.04454	33.15654	421.20450	57.01567	1107.21228	-628.05200	-91.70318	573.69342	-323.51999	67.84319	572.58429	-341.55420	11.46876	602.80811	615.37152	167.45767	595.85950	599.87421	
5109	51.080	-214.79166	13.34691	-171.98210	193.11134	8.41263	-216.24821	-148.30528	33.01524	433.14664	254.31262	33.20666	421.23376	55.42004	1107.92822	-627.62384	-92.80251	573.56488	-323.55731	66.23798	572.27393	-340.65134	10.34991	602.78381	615.48962	166.53874	596.01721	600.08496	
5110	51.090	-215.94801	13.50939	-171.67986	191.93561	8.23149	-216.32030	-149.37184	32.74091	433.32718	253.58925	33.11399	421.24323	54.11147	1108.32178	-627.11902	-94.46490	573.46649	-323.50443	64.69992	572.64819	-341.29645	8.63964	602.63470	615.18378	165.08710	595.78583	600.19006	
5111	51.100	-216.57991	13.41173	-171.56335	190.98822	8.48279	-216.21838	-150.37177	32.76959	433.38751	252.09673	33.11043	421.50342	52.73294	1108.66199	-626.73932	-95.47336	573.63171	-323.33240	64.23126	572.64075	-341.18790	7.00940	602.07214	614.43512	163.99011	595.85297	600.22974	
5112	51.110	-217.49040	13.60096	-171.52325	190.26260	8.60279	-216.15549	-151.21263	32.49288	433.48160	251.49216	32.94012	421.62396	51.65367	1108.90039	-626.25659	-96.57117	573.55853	-323.12689	62.40304	572.59735	-340.85562	6.92242	602.26611	615.95709	163.01680	595.83710	600.35602	
5113	51.120	-218.82254	13.68031	-171.36565	188.95210	8.65916	-216.23647	-152.01553	32.08258	433.45532	250.23291	32.73959	421.58749	50.23529	1109.15613	-625.92365	-97.83186	573.54535	-322.90338	61.63692	572.89569	-341.36221	5.56014	602.06183	616.17395	161.61607	595.70837	600.47882	
5114	51.130	-219.41496	13.43256	-171.44221	188.10992	8.81215	-215.89325	-153.26643	32.01092	433.46741	249.47723	32.74038	421.75739	49.06612	1109.33362	-625.56628	-99.14972	573.53510	-322.79132	60.08610	572.50336	-340.44043	4.65343	601.69153	615.90540	160.54129	595.48413	600.71362	
5115	51.140	-220.61441	13.51718	-171.45361	187.01123	8.85612	-215.90219	-154.04945	31.87984	433.52731	248.64378	32.59041	421.88831	47.80908	1109.61255	-625.45551	-100.65739	573.53662	-322.62781	58.52955	572.75977	-340.17096	3.24729	601.63849	616.48987	159.58253	595.39160	600.90430	
5116	51.150	-221.67821	13.86426	-171.20468	186.22209	8.90312	-215.81578	-154.93793	31.49335	433.88095	247.42325	32.30617	421.83661	46.54008	1109.70984	-625.10797	-102.00133	573.51843	-322.41498	58.64439	572.98706	-340.38058	2.32598	601.48480	616.75391	158.19119	595.27295	601.14166	
5117	51.160	-222.39684	13.76087	-171.13651	185.21945	9.23763	-215.75516	-156.11707	31.47633	433.92044	246.62189	32.06587	421.88931	45.66327	1109.94714	-624.75092	-102.97446	573.60156	-322.14835	56.03529	572.84857	-339.81076	0.93308	601.28424	616.97614	157.32477	595.07648	601.44135	
5118	51.170	-223.25125	13.74808	-170.97314	184.48531	9.25237	-215.74251	-156.97604	31.54793	434.08441	245.95128	31.94860	421.82513	44.38155	1110.01660	-624.50708	-104.10749	573.53613	-321.82626	55.56804	573.03949	-339.84293	0.03443	601.11841	616.65503	156.76520	595.43909	600.96167	
5119	51.180	-224.33899	13.82568	-170.83435	183.10121	9.43064	-215.58739	-157.92311	31.06629	434.00079	244.04477	31.69752	422.10278	43.52374	1110.10156	-624.14191	-105.51144	573.39844	-321.56024	53.70687	572.92822	-338.93793	-1.26249	601.09039	617.29987	155.66628	595.35791	601.32629	
5120	51.190	-225.21640	13.98880	-170.66606	182.43311	9.47019	-215.54491	-158.79146	30.73042	434.07529	244.09178	31.54659	422.20279	42.41293	1110.32825	-624.04224	-106.83827	573.51001	-321.58060	52.45736	573.20087	-339.12933	-2.26130	600.90442	617.49536	154.48967	595.37646	601.31030	
5121	51.200	-226.08759	14.21737	-170.60268	181.57378	9.76018	-215.47676	-159.59796	30.61306	434.25839	243.10872	31.27990	422.10773	41.23276	1110.41626	-623.95642	-107.99739	573.51776	-321.33429	52.06816	573.36926	-339.15915	-3.60776	600.67908	617.70483	153.63287	595.14825	601.76239	
5122	51.210	-227.11545	14.41091	-170.60974	180.69307	9.90050	-215.45987	-160.62372	30.61941	434.14258	241.89377	30.98003	422.06552	40.30291	1110.59375	-623.83691	-109.11147	573.62714	-321.04715	49.94449	573.24854	-338.86807	-4.20263	600.46405	617.47845	152.26183	595.09412	602.10016	
5123	51.220	-227.86855	14.32375	-170.46971	179.83807	9.95334	-215.33882	-161.54073	30.28282	434.43088	241.30731	30.97546	422.24097	39.24617	1110.80640	-623.72125	-110.06115	573.34052	-320.84015	49.08121	573.43292	-338.68900	-5.70844	600.35431	618.23816	150.15721	594.47772	602.43561	
